<svg id="Logo" version="1.1" viewBox="0 0 940 940" xmlns="http://www.w3.org/2000/svg">
 <defs>
  <style>.cls-1 {
        fill: none;
        stroke: #1465b4;
        stroke-miterlimit: 10;
        stroke-width: 66px;
      }

      .cls-2 {
        fill: #42a5f5;
      }

      .cls-3 {
        fill: #1465b4;
      }

      .cls-4 {
        fill: #1568b9;
      }

      .cls-5 {
        fill: #1876d2;
      }</style>
 </defs>
 <g transform="translate(-11.257 -4.3842)">
  <path class="cls-5" d="m480.97 942.07c-47.49 0-85.76-7.2-109.26-12.82-27.08-6.48-49.71-14.46-67.02-21.49 8.68-20.25 17.36-40.49 26.04-60.74 13.77 5.57 32 12.04 53.92 17.45 19.4 4.78 53.45 11.6 96.32 11.6 62.71 0 110.98-14.73 134.02-22.89 35.59-12.6 65.28-28.81 89.11-44.77 13.11 17.69 26.22 35.39 39.33 53.08-41.56 28.23-80.29 44.84-108.87 54.78-26.59 9.25-81.89 25.8-153.59 25.8z"/>
  <path id="bogen" class="cls-1" d="m704.23 101.74c-4.19-2.52-10.17-6.01-17.46-9.94-20.38-10.98-46.04-22.69-76.6-32.2-40.81-12.69-84.2-19.53-129.19-19.53-239.97 0-434.5 194.53-434.5 434.5 0 168.37 95.76 314.37 235.79 386.5"/>
  <path class="cls-2" d="m774.58 838.42-39.39-53.1c20.31-16.65 45.37-40.5 69.28-72.99 26.36-35.82 41.41-68.67 49.42-88.65 3.97-9.91 6.81-18.22 8.16-22.27 6.02-18.07 12.99-43.33 17.03-74.13 3.43-26.12 3.92-49.91 2.97-70.52 16.29-1.53 32.57-3.02 48.87-4.48 5.65-0.51 11.3-1.01 16.96-1.51 0.06 1.14 0.1 2.06 0.12 2.7 0.04 0.89 0.07 1.95 0.17 3.47v0s0.31 16.89 0.34 18.91c0.35 31.56-5.28 68.73-5.28 68.73-2.35 15.51-6.31 36.37-13.3 60.49-3.85 13.27-9.62 30.99-18.07 51.1-3.68 8.76-6.84 15.53-8.36 18.74-3.34 7.05-11.76 24.34-24.9 45.57-15.54 25.1-29.91 43.16-35.78 50.34-15.42 18.88-37.69 43.03-68.22 67.6z"/>
  <path class="cls-5" d="m878.55 417.88c-2.34-14.19-11.81-67.7-36.29-118.48-19.58-40.64-45.44-72.74-45.44-72.74-0.09-0.12-0.19-0.23-0.28-0.35 12.7-19.16 25.4-38.33 38.1-57.49 21.22 24.53 47.49 60.06 69.57 107.12 24.99 53.27 35.4 101.69 40.04 136.1-21.9 1.95-43.81 3.89-65.71 5.84z"/>
  <path id="Links" class="cls-2" d="m414.97 384.99c0.08 0.13 0.17 0.27 0.25 0.4-0.49 0.5-1.17 1.2-1.97 2.06-1 1.07-2.4 2.56-3.97 4.4-0.31 0.36-1.68 1.99-3.46 4.36-3.5 4.66-5.92 8.67-6.38 9.45-4.35 7.27-7 13.94-8.12 16.96-4.03 10.81-5.52 20.26-6.13 26.49-0.58 5.93-0.57 10.98-0.4 14.73-47.13-73.91-94.27-147.82-141.4-221.74 19.09-12.16 38.18-24.33 57.27-36.49l114.32 179.38z"/>
  <path id="Rechts" class="cls-2" d="m587.8 470.03c0.82-8.39 0.54-15.48 0.03-20.78-0.55-5.75-1.45-10.26-1.99-12.69-1.26-5.74-2.77-10.28-3.82-13.16-1.39-3.81-4.31-11.15-9.51-19.47-2.89-4.63-5.63-8.2-7.44-10.44-1.7-2.11-3.25-3.85-4.48-5.18l0.31-0.44c64.73-97.45 129.45-194.89 194.18-292.34 8.32 6.03 16.99 12.74 25.87 20.18 9.72 8.15 18.54 16.21 26.5 24-73.22 110.1-146.44 220.21-219.66 330.31z"/>
  <path class="cls-4" d="m548.58 541.91c57.04 22.94 92.21 91.61 92.21 129.08 0 77.84-308.48 77.84-308.48 0 0-7.36 0.62-14.58 1.81-21.64 0 0 3.64-21.31 14.44-41.4 21.29-39.6 71.95-64.16 75.86-66.01 14.45 11.16 27.82 16.1 36.41 18.48 49.52 13.74 87.36-17.42 87.37-18.13 0.14-0.13 0.25-0.28 0.29-0.31s0.04-0.1 0.09-0.08z"/>
  <path class="cls-5" d="m606.66 557.23c2.08 1.81 3.86 3.44 5.32 4.82 2.05 1.93 3.56 3.45 4.13 4.03 0.15 0.15 0.83 0.84 1.73 1.78 1.1 1.15 2.82 2.95 4.96 5.38 1.85 2.11 3.21 3.78 4.06 4.81 1.11 1.36 1.87 2.34 2.07 2.59 1.15 1.47 2.01 2.63 2.54 3.36 0.92 1.25 1.6 2.2 1.75 2.41 0.87 1.22 2.19 3.12 3.73 5.49 0.67 1.03 1.93 3 3.43 5.54 1.06 1.79 1.87 3.24 2.35 4.1 0.67 1.21 1.51 2.77 2.44 4.6 1.81 3.56 3.12 6.46 3.81 8.02 1.62 3.67 2.7 6.53 3.05 7.47 0.89 2.38 1.54 4.3 1.88 5.31 0.54 1.6 0.89 2.75 1.03 3.19 0.38 1.24 0.66 2.2 0.75 2.51 0.28 0.98 0.53 1.88 0.74 2.65 0.1 0.36 0.15 0.54 0.21 0.76 0.33 1.23 0.55 2.17 0.78 3.08 0.13 0.53 0.29 1.22 0.48 2.04 0.05 0.24 0.15 0.68 0.27 1.23 0.38 1.76 1.2 5.68 1.89 10.54 0.02 0.16 0.12 0.86 0.24 1.79 0.12 0.95 0.33 2.61 0.54 4.71 0.04 0.45 0.2 2.09 0.35 4.26 0.19 2.79 0.25 4.85 0.32 7.47 0 0.3 0.02 0.84 0.03 1.54 0 0.85 0.01 1.68-0.03 2.75-0.02 0.52-0.05 1.33-0.16 2.39-0.08 0.8-0.17 1.4-0.24 1.88-0.12 0.81-0.29 1.89-0.6 3.27-0.2 0.85-0.47 1.9-0.85 3.09 10.21 0.94 19.09 1.36 26.31 1.53 2.97 0.07 10.26 0.21 19.72-0.04 5.05-0.13 8.91-0.32 10.21-0.39 14.9-0.77 26.26-2.26 29.36-2.68 4.35-0.59 10.75-1.47 19.15-3.19 7.35-1.5 12.32-2.82 13.43-3.12 3.49-0.94 8.18-2.22 14.04-4.38 5.5-2.04 9.26-3.8 10.79-4.54 3.39-1.64 5.72-3 6.79-3.64 1.23-0.74 2.05-1.25 2.7-1.69 1.86-1.25 3.21-2.33 3.79-2.8 1.13-0.93 2.39-1.95 3.86-3.52 0.82-0.88 1.91-2.05 3.05-3.83 0.7-1.08 1.86-2.92 2.59-5.55 0.39-1.41 0.51-2.52 0.54-2.78 0.06-0.6 0.08-1.15 0.05-3.05-0.02-0.94-0.04-2.3-0.08-3.32-0.33-7.15-1.35-13.33-1.35-13.33-0.39-2.37-1.58-9.01-4.4-17.21-6.37-18.52-16.41-31.52-21.46-37.45-1.35-1.59-5.48-6.36-11.62-11.86-4.32-3.87-12.4-10.59-23.87-16.92-5.62-3.1-12.95-6.61-21.89-9.59-5.26 4.34-21.96 17.01-46.94 18.14-26.94 1.22-45.73-11.78-50.97-15.68-3.18 1.29-12.98 5.39-22.04 11.15-5.17 3.28-10.13 7.13-10.44 7.37-1.76 1.37-3.22 2.57-4.29 3.48z" data-name="Rechts"/>
  <path class="cls-5" d="m363.48 557.4c-2.08 1.81-3.86 3.44-5.32 4.82-2.05 1.93-3.56 3.46-4.13 4.03-0.15 0.15-0.83 0.84-1.73 1.78-1.1 1.15-2.82 2.95-4.96 5.38-1.85 2.11-3.21 3.78-4.06 4.81-1.11 1.36-1.87 2.34-2.07 2.59-1.15 1.47-2.01 2.63-2.54 3.36-0.92 1.25-1.6 2.2-1.75 2.41-0.87 1.22-2.19 3.12-3.73 5.49-0.67 1.03-1.93 3-3.43 5.54-1.06 1.79-1.87 3.24-2.35 4.1-0.67 1.21-1.51 2.77-2.44 4.6-1.81 3.56-3.12 6.47-3.8 8.02-1.61 3.67-2.7 6.53-3.05 7.47-0.89 2.38-1.54 4.3-1.88 5.31-0.54 1.6-0.89 2.75-1.03 3.19-0.38 1.24-0.66 2.21-0.75 2.51-0.28 0.98-0.53 1.88-0.74 2.65-0.1 0.36-0.15 0.54-0.21 0.76-0.33 1.23-0.55 2.17-0.78 3.08-0.13 0.53-0.29 1.22-0.48 2.04-0.05 0.24-0.15 0.68-0.27 1.23-0.38 1.76-1.2 5.68-1.88 10.54-0.02 0.16-0.12 0.86-0.24 1.79-0.12 0.95-0.33 2.61-0.54 4.71-0.04 0.45-0.2 2.09-0.35 4.26-0.19 2.79-0.25 4.85-0.32 7.47 0 0.3-0.02 0.84-0.03 1.54 0 0.85-0.01 1.68 0.03 2.75 0.02 0.52 0.06 1.33 0.16 2.39 0.08 0.8 0.17 1.4 0.24 1.88 0.12 0.81 0.29 1.89 0.6 3.27 0.2 0.85 0.47 1.9 0.85 3.09-10.21 0.94-19.09 1.36-26.31 1.53-2.97 0.07-10.26 0.21-19.72-0.03-5.05-0.13-8.91-0.32-10.21-0.39-14.9-0.77-26.26-2.26-29.36-2.68-4.35-0.59-10.75-1.47-19.15-3.19-7.35-1.5-12.33-2.82-13.43-3.12-3.49-0.94-8.18-2.21-14.04-4.38-5.5-2.04-9.26-3.79-10.79-4.53-3.39-1.64-5.72-3-6.79-3.64-1.23-0.74-2.05-1.25-2.7-1.69-1.86-1.25-3.22-2.33-3.79-2.8-1.13-0.93-2.39-1.95-3.86-3.52-0.82-0.88-1.91-2.05-3.05-3.83-0.7-1.08-1.87-2.92-2.6-5.54-0.39-1.41-0.51-2.52-0.54-2.78-0.06-0.6-0.08-1.15-0.05-3.05 0.02-0.94 0.04-2.3 0.08-3.32 0.33-7.15 1.35-13.33 1.35-13.33 0.39-2.37 1.58-9.01 4.4-17.21 6.36-18.52 16.41-31.53 21.45-37.46 1.35-1.59 5.48-6.36 11.62-11.87 4.32-3.87 12.4-10.59 23.87-16.92 5.62-3.1 12.95-6.61 21.89-9.6 5.26 4.34 21.96 17.01 46.94 18.13 26.94 1.21 45.73-11.79 50.97-15.69 3.18 1.29 12.98 5.39 22.04 11.15 5.17 3.28 10.13 7.13 10.44 7.37 1.76 1.37 3.22 2.57 4.29 3.48z" data-name="Links"/>
  <path id="rechts" class="cls-4" d="m643.57 535.32c5.56 4.13 22.57 15.66 47.1 15.73 27.3 0.07 45.72-14.1 50.74-18.25-16.9 27.66-33.8 55.31-50.7 82.97-15.72-26.82-31.43-53.63-47.15-80.45z"/>
  <path id="mitte" class="cls-5" d="m424.36 541.98c6.77 5.31 28.42 20.93 60.26 21.5 34.12 0.61 57.45-16.46 63.94-21.56-21.53 30.3-43.06 60.61-64.59 90.91-19.87-30.28-39.74-60.56-59.61-90.84z"/>
  <ellipse class="cls-5" cx="279.3" cy="465.74" rx="66.09" ry="67.19" data-name="Links"/>
  <ellipse class="cls-5" cx="690.98" cy="465.93" rx="66.09" ry="67.19" data-name="Rechts"/>
  <ellipse id="Mitte" class="cls-2" cx="486.6" cy="458.43" rx="81.19" ry="82.66"/>
  <path id="links" class="cls-3" d="m228.97 533.07c5.41 4.44 21.63 16.58 45.8 17.98 27.44 1.58 46.72-11.75 51.96-15.64-16.12 27.45-32.24 54.89-48.36 82.34-16.46-28.22-32.93-56.45-49.39-84.67z"/>
 </g>
</svg>
